# xmcd
#
# Track frame offsets:
#	182
#	15937
#	30317
#	45145
#	60720
#	73652
#	86785
#	102375
#	117777
#	135815
#
# Disc length: 2039 seconds
#
# Revision: 0
# Processed by: cddbd v1.5.2PL0 Copyright (c) Steve Scherf et al.
# Submitted via: EasyCDDAExtractor 2011.0.0.0
#
DISCID=6e07f50a
DTITLE=Donna Meade - Loves last Stand
DYEAR=1988
DGENRE=Country
TTITLE0=Love's Last Stand
TTITLE1=Congratulations
TTITLE2=(You Gotta Get) Right Back In The Water
TTITLE3=When Love Was All We Had
TTITLE4=Lay Around And Love On You
TTITLE5=The Chokin' Kind
TTITLE6=Be Serious
TTITLE7=Leavin' On Your Mind
TTITLE8=From A Distance
TTITLE9=Slow Fire
EXTD=
EXTT0=
EXTT1=
EXTT2=
EXTT3=
EXTT4=
EXTT5=
EXTT6=
EXTT7=
EXTT8=
EXTT9=
PLAYORDER=
